<svg id="Layer_1" data-name="Layer 1" xmlns="http://www.w3.org/2000/svg" viewBox="0 0 240.16 226.42"><defs><style>.cls-1,.cls-2{fill:#fff;}.cls-2{opacity:0.35;}</style></defs><path class="cls-1" d="M1007.15-354.59c.44.15.87.31,1.31.44a11.25,11.25,0,0,1,8.11,10.38c0,1.79-.78,2.67-2.62,2.68-3.59,0-7.18,0-10.81,0v4.49c.78,0,1.56,0,2.34,0a6.81,6.81,0,0,1,6.4,5,6.63,6.63,0,0,1-3.06,7.49,2,2,0,0,0-1.23,2.21c.08,1.09,0,2.18,0,3.32,1.34.26,2.57.44,3.76.74,10.93,2.81,18.27,12,18.72,23.55.06,1.5.05,3,0,4.5,0,1.74-.91,2.75-2.31,2.71s-2.13-1-2.2-2.68a63.53,63.53,0,0,0-.47-8.06,20.09,20.09,0,0,0-19-16.24c-2.46-.08-3.07-.7-3.08-3.17s0-5.1,0-7.65c0-1.8.57-2.4,2.32-2.71a2.22,2.22,0,0,0,2.13-2.41,2.21,2.21,0,0,0-2.47-2.07q-22.27,0-44.56,0a2.2,2.2,0,0,0-2.41,2.13c-.06,1.27.72,2.1,2.19,2.35,1.64.28,2.25.93,2.27,2.62q.06,4.13,0,8.25c0,1.84-.82,2.58-2.68,2.65a20.18,20.18,0,0,0-19.77,19.42c-.1,1.75,0,3.5,0,5.25v57.75a9.64,9.64,0,0,1-.12,1.94,2,2,0,0,1-2.12,1.74,2,2,0,0,1-2.16-1.71,6.71,6.71,0,0,1-.11-1.49q0-31.05,0-62.1c0-12.5,8-22.32,20.08-24.86.77-.17,1.55-.27,2.42-.41,0-1.5.05-2.89,0-4.28a1.53,1.53,0,0,0-.71-.95c-3-1.85-4.35-4.77-3.52-7.85s3.5-4.95,7-5h1.7v-4.49H952.15c-2.48,0-3.27-.82-3-3.3.51-4.72,3.11-7.85,7.49-9.59.43-.17.85-.41,1.27-.61Zm-53,8.93h57.46a6.5,6.5,0,0,0-6.63-4.42q-14.54,0-29.08,0c-5.15,0-10.29,0-15.44,0A6.44,6.44,0,0,0,954.11-345.66ZM998.56-341H967.17v4.35h31.39Z" transform="translate(-862.75 354.59)"/><path class="cls-1" d="M1021.12-255.86c0,12.65-.11,25.31,0,38,.07,5.33-3.47,8.05-8,8-20.31-.14-40.62-.06-60.93-.06-4.93,0-7.63-2.67-7.63-7.57q0-37.74,0-75.47c0-9.94,6.74-16.6,16.69-16.6q21.91,0,43.82,0a15.64,15.64,0,0,1,15.72,12.77,20.86,20.86,0,0,1,.31,4.18Q1021.13-274.24,1021.12-255.86Zm-4.53-.13q0-18.45,0-36.9c0-7.51-4.67-12.18-12.13-12.18H961.25c-7.48,0-12.16,4.65-12.17,12.14v75.15c0,2.72.62,3.33,3.35,3.33h60.76c2.82,0,3.4-.59,3.4-3.44Z" transform="translate(-862.75 354.59)"/><path class="cls-1" d="M982.68-200.94H952.07c-9.68,0-16.41-6.67-16.52-16.34,0-1.25,0-2.5,0-3.75a2.24,2.24,0,0,1,2.29-2.42,2.24,2.24,0,0,1,2.19,2.38c.07,1.6,0,3.2.07,4.8a11.18,11.18,0,0,0,11.35,10.82c3.25,0,6.5,0,9.75,0h52.23c7.47,0,12.14-4.67,12.14-12.17q0-30.62,0-61.22a15.09,15.09,0,0,1,0-1.65,2.12,2.12,0,0,1,2.16-2.06,2.17,2.17,0,0,1,2.28,2.11,9.56,9.56,0,0,1,0,1.2q0,30.83,0,61.67c0,9.95-6.72,16.63-16.66,16.63Z" transform="translate(-862.75 354.59)"/><path class="cls-2" d="M1016.59-245.67V-217c0,2.15-.58,2.59-3.4,2.59H952.43c-2.73,0-3.35-.46-3.35-2.51v-56.48c0-5.62,4.69-9.12,12.17-9.12h43.21c7.46,0,12.12,3.51,12.13,9.16Q1016.61-259.54,1016.59-245.67Z" transform="translate(-862.75 354.59)"/><path class="cls-1" d="M869.65-160.17h1.48c1.49,0,3.48,1.11,6,3.33l.73-.08h.3q7.7,0,13.53,9.62a18.94,18.94,0,0,1,2.15,8v.3c-.46.79-1,1.18-1.48,1.18h-.09c-.64,0-1.2-.47-1.7-1.4q0-3.72-3.84-9.32-4-4.87-8.06-4.88h-1.18c-.35,0-.52.25-.52.74v.22c0,.63,1,1.17,3,1.63a10.67,10.67,0,0,1,5.62,5.4l.29,1.7v.66c0,2-1.14,3.45-3.4,4.36a5.49,5.49,0,0,1-1.55.23h-.16a8.23,8.23,0,0,1-4.62-1.69h-.07a6.14,6.14,0,0,1-5,2.51q-3.68,0-5-4.29l-.18-1.22v-.51q0-4,4.44-9.1a14.69,14.69,0,0,1,3.25-2.73,4.47,4.47,0,0,0-3-1.19h0c-2.06,0-3.74,1.51-5,4.51a1.75,1.75,0,0,1-1.11.52h-.25a1.77,1.77,0,0,1-1.48-2,11.39,11.39,0,0,1,3.11-5A6.84,6.84,0,0,1,869.65-160.17Zm-.74,16c0,1.93.71,3.06,2.14,3.4h.59q2.22,0,2.22-5.91c0-.64.45-1,1.33-1.18h.3c1.13,0,1.7.51,1.7,1.55a8.56,8.56,0,0,0,1.55,4,3.15,3.15,0,0,0,1.85.74l.44.08c1,0,1.48-.55,1.48-1.63a6.12,6.12,0,0,0-2.36-4.66,23.4,23.4,0,0,0-4.29-1.48,4,4,0,0,1-1.63-1.77c-.08-.64-.16-1-.22-1-2.08,1-3.69,3-4.81,5.92Z" transform="translate(-862.75 354.59)"/><path class="cls-1" d="M897.3-153.17h1.93c4.19.26,6.28.92,6.28,2,0,.61-1.23,1.65-3.7,3.1a7.28,7.28,0,0,0-2.73,5.55v.66q0,4.52,5.4,8.29a15.44,15.44,0,0,0,3.69,1.25,1.32,1.32,0,0,1,.67,1.15v.52c0,.65-.57,1.05-1.7,1.18A13.51,13.51,0,0,1,901-132.2q-5.24-4.38-5.23-9.81,0-4.52,4.51-8.21l-.22-.08-3.79-.07-1.56.07c-.39,0-.66-.41-.81-1.25C893.9-152.64,895-153.17,897.3-153.17Z" transform="translate(-862.75 354.59)"/><path class="cls-1" d="M907.49-176.17h2q5.28,0,11.9,3.76a21.52,21.52,0,0,1,6.29,6.14v.3c0,.53-.52.92-1.56,1.18h-.22c-.27,0-.94-.62-2-1.85a31,31,0,0,0-5.13-3.53,20.56,20.56,0,0,0-8.21-2.29h-.07c-.64,0-1,.22-1,.67-.09,0-.17.32-.22,1h.08a29.24,29.24,0,0,1,6,1.42,20.42,20.42,0,0,1,7.37,4.58q2.76,2.47,4.14,7.91a11.31,11.31,0,0,1,.3,2.59v.3a20.67,20.67,0,0,1-1.7,8.13q-3.94,8-11,8-5,0-7.24-5.33a9.64,9.64,0,0,1-.55-3.19v-.14a10.69,10.69,0,0,1,4.66-9.1,8,8,0,0,1,4.29-1.26,4.8,4.8,0,0,1,4.65,3.18,6.61,6.61,0,0,1,.4,2.29c0,2.91-1.41,5.32-4.22,7.25a8.17,8.17,0,0,1-3.47.74h-.31c-1,0-1.55-.34-1.55-1,.21-1,.53-1.48,1-1.48,3.3-1.08,5-2.8,5-5.18,0-1.68-.55-2.51-1.63-2.51s-2.47.93-3.92,2.81A9.94,9.94,0,0,0,910-146a6.58,6.58,0,0,0,1.85,4.29,5.48,5.48,0,0,0,2.37.67h.22q4.29,0,7.69-6.44a16.45,16.45,0,0,0,1.63-7q0-8.61-10.87-12.2a25.79,25.79,0,0,0-7.25-1h-.22c-1-.38-1.48-1-1.48-1.7a2.28,2.28,0,0,1,.79-1.64h2.07v-1.41l-.51-.07h-.67l-.44.07c-.63,0-1-.56-1.11-1.7v-.06c0-1.13.39-1.7,1.18-1.7A10.14,10.14,0,0,1,907.49-176.17Z" transform="translate(-862.75 354.59)"/><path class="cls-1" d="M935.11-164.59h1.18a4.44,4.44,0,0,1,4.29,3A8.39,8.39,0,0,1,941-159a19.48,19.48,0,0,1-2.07,7.84,26.73,26.73,0,0,1-3.11,4.48,3.28,3.28,0,0,0-.81,1.77c0,.92.62,1.88,1.85,2.89a12.73,12.73,0,0,0,5,1h1.11a11.64,11.64,0,0,0,7.77-2.66,3.34,3.34,0,0,0,1-2.22q0-3.3-6.65-5.62a6.52,6.52,0,0,1-3.41-3.25,5.54,5.54,0,0,1-.44-1.92v-.3q0-3.6,6-5.84l1.33-.22c1.78.22,2.66.81,2.66,1.77l.08.45c0,.71-.5,1.15-1.48,1.33l-1.85-.23c-.86,0-1.92.69-3.18,2.08a2.48,2.48,0,0,0-.37,1.18q0,1.68,3.55,2.73,5.57,2.38,7.39,6.88l.15,1v1c0,1.71-1.41,3.37-4.21,5a21.15,21.15,0,0,1-9.62,2.22q-7.83-.21-9.46-4.73a6.61,6.61,0,0,1-.3-2.07c0-1.56,1.36-4,4.07-7.25A11.43,11.43,0,0,0,938-158v-.89c0-1.58-.51-2.54-1.55-2.89h-.42a5,5,0,0,0-3.48,1.85,6.1,6.1,0,0,0-1.62,3.85v.37a1.69,1.69,0,0,0,.66,1.52h.14c1.1,0,2.08-1.26,3-3.77a2.46,2.46,0,0,1,1.33-.52c.74,0,1.18.59,1.33,1.78v.44c-.07.81-1,2.22-2.74,4.21a4.54,4.54,0,0,1-2.22,1h-.7q-2.49,0-3.77-3.25l-.15-1.41q0-4.14,4.29-7.84A6.61,6.61,0,0,1,935.11-164.59Z" transform="translate(-862.75 354.59)"/><path class="cls-1" d="M963.69-165.7h1a5,5,0,0,1,4.8,2.81,5.31,5.31,0,0,1,.45,2.15v.74q0,3.09-3.33,10.72a18.67,18.67,0,0,0-1.18,5.62c.16,1.63.58,2.44,1.25,2.44a2.27,2.27,0,0,0,1.26.22q1.8,0,2.37-2.73c.31-2.76.55-4.14.74-4.14a2,2,0,0,1,1.25-.37h.3c1,0,1.48.46,1.48,1.4a9.3,9.3,0,0,0,1.33,4.29,2.25,2.25,0,0,0,2.14,1.18h.22c1.82-.17,2.73-1.06,2.73-2.66v-.66q0-3.8-6.06-6.07Q970-153,970-156.82q0-4,6.73-6.29l1.33-.14a3.5,3.5,0,0,1,2.89,1.33l.22,1c0,.85-.59,1.37-1.78,1.55a5.69,5.69,0,0,0-1.62-.37h-.45c-1.07,0-2.25.77-3.55,2.3a1.84,1.84,0,0,0-.29.88v.3c0,1.1,1.21,2.08,3.62,3a19.74,19.74,0,0,1,5.25,3.77q2.29,2.93,2.29,5v1.19c0,1.69-1.11,3.21-3.32,4.58A9.82,9.82,0,0,1,978-138a8.16,8.16,0,0,1-5.18-2,8.71,8.71,0,0,1-5.47,2.37c-2.42,0-4.12-1.41-5.1-4.21l-.37-2.45c-2.2,2-3.6,3-4.22,3h-.37c-.74,0-1.18-.47-1.33-1.41v-.15a2.46,2.46,0,0,1,1.67-2.29,27.14,27.14,0,0,0,5-5.1q4.14-5.89,4.15-9.58a2.68,2.68,0,0,0-2-2.52,2.44,2.44,0,0,0-1-.15q-1.85,0-4,3.18a6,6,0,0,0-.89,3,1.75,1.75,0,0,0,.67,1.62h.37q1.59,0,3.18-3.84a2.53,2.53,0,0,1,1.4-.52c.74,0,1.21.54,1.41,1.63v.44a3.38,3.38,0,0,1-1,2.22q-2.45,3.61-4.77,3.62h-.22c-1.75,0-3.09-1-4-3a5.29,5.29,0,0,1-.37-2q0-4.08,4.29-7.91A6.92,6.92,0,0,1,963.69-165.7Z" transform="translate(-862.75 354.59)"/><path class="cls-1" d="M980.42-174.9H981c.73,0,1.29.52,1.7,1.55v.37q-1.61,11.8-1.94,11.81a1.74,1.74,0,0,1-1.19.52,1.77,1.77,0,0,1-1.7-1.34q1.11-11.22,1.33-12C979.63-174.61,980-174.9,980.42-174.9Z" transform="translate(-862.75 354.59)"/><path class="cls-1" d="M1001-160.17h1.48q2.22,0,6,3.33l.74-.08h.3q7.68,0,13.53,9.62a18.78,18.78,0,0,1,2.14,8v.3c-.45.79-1,1.18-1.48,1.18h-.07c-.64,0-1.21-.47-1.7-1.4q0-3.72-3.84-9.32c-2.67-3.25-5.35-4.88-8.07-4.88h-1.23c-.34,0-.52.25-.52.74v.22c0,.63,1,1.17,3,1.63a10.6,10.6,0,0,1,5.62,5.4l.3,1.7v.66c0,2-1.14,3.45-3.4,4.36a5.51,5.51,0,0,1-1.56.23h-.07a8.22,8.22,0,0,1-4.66-1.7h-.07a6.17,6.17,0,0,1-5,2.51c-2.45,0-4.11-1.43-5-4.29l-.13-1.21v-.51q0-4,4.43-9.1a15,15,0,0,1,3.26-2.73,4.47,4.47,0,0,0-3-1.19h-.07c-2.06,0-3.74,1.51-5,4.51a1.75,1.75,0,0,1-1.11.52h-.22a1.77,1.77,0,0,1-1.48-2,11.45,11.45,0,0,1,3.1-5A6.83,6.83,0,0,1,1001-160.17Zm-.74,16c0,1.93.72,3.06,2.15,3.4h.59q2.22,0,2.22-5.91c0-.64.44-1,1.33-1.18h.25c1.14,0,1.71.51,1.71,1.55a8.56,8.56,0,0,0,1.55,4,3.15,3.15,0,0,0,1.85.74l.44.08c1,0,1.48-.55,1.48-1.63a6.1,6.1,0,0,0-2.37-4.66,23.3,23.3,0,0,0-4.28-1.48,3.83,3.83,0,0,1-1.63-1.77c-.09-.64-.16-1-.22-1q-3.13,1.53-4.81,5.92Z" transform="translate(-862.75 354.59)"/><path class="cls-1" d="M1021.77-140.28h.59l.15.15v.15q0,6.19,4.51,8a8,8,0,0,0,1.7.22,12.24,12.24,0,0,0,5-1.41l.37-.07c.89.18,1.33.58,1.33,1.18v.74c0,1.11-1.83,2.11-5.47,3l-1.62.15a8.54,8.54,0,0,1-7.62-4.51,12.33,12.33,0,0,1-1.4-6.36C1019.28-139.61,1020.11-140,1021.77-140.28Z" transform="translate(-862.75 354.59)"/><path class="cls-1" d="M1032.27-164.59h1.18a4.44,4.44,0,0,1,4.29,3,8.39,8.39,0,0,1,.37,2.58,19.48,19.48,0,0,1-2.07,7.84,26.76,26.76,0,0,1-3.1,4.44,3.26,3.26,0,0,0-.82,1.77c0,.92.62,1.88,1.85,2.89a13,13,0,0,0,5,1h1.11a11.61,11.61,0,0,0,7.69-2.59,3.34,3.34,0,0,0,1-2.22q0-3.3-6.65-5.62a6.5,6.5,0,0,1-3.4-3.25,5.34,5.34,0,0,1-.45-1.92v-.3q0-3.6,6-5.84l1.33-.22q2.67.33,2.67,1.77l.07.45c0,.71-.49,1.15-1.48,1.33l-1.85-.23c-.86,0-1.92.69-3.18,2.08a2.48,2.48,0,0,0-.37,1.18c0,1.12,1.19,2,3.55,2.73q5.57,2.39,7.4,6.88l.15,1v1c0,1.71-1.41,3.37-4.22,5a21.06,21.06,0,0,1-9.57,2.17q-7.83-.21-9.47-4.73a6.91,6.91,0,0,1-.29-2.07c0-1.56,1.35-4,4.06-7.25a11.44,11.44,0,0,0,2.15-6.28v-.89c0-1.58-.52-2.54-1.55-2.89h-.45a5,5,0,0,0-3.45,1.85,6.09,6.09,0,0,0-1.63,3.85v.37a1.69,1.69,0,0,0,.63,1.54h.14q1.65,0,3-3.77a2.46,2.46,0,0,1,1.33-.52c.74,0,1.19.59,1.33,1.78v.44c-.07.81-1,2.22-2.73,4.21a4.63,4.63,0,0,1-2.22,1H1029q-2.49,0-3.77-3.25l-.15-1.41q0-4.14,4.29-7.84A6.6,6.6,0,0,1,1032.27-164.59Z" transform="translate(-862.75 354.59)"/><path class="cls-1" d="M1048.54-174.9h.59c.73,0,1.29.52,1.7,1.55v.37q-1.61,11.8-1.92,11.81a1.71,1.71,0,0,1-1.18.52A1.79,1.79,0,0,1,1046-162q1.11-11.22,1.34-12C1047.77-174.61,1048.15-174.9,1048.54-174.9Z" transform="translate(-862.75 354.59)"/><path class="cls-1" d="M1060.07-164.59h1.19a4.44,4.44,0,0,1,4.29,3,9,9,0,0,1,.37,2.58,19.48,19.48,0,0,1-2.07,7.84,27,27,0,0,1-3.08,4.48,3.28,3.28,0,0,0-.81,1.77c0,.92.61,1.88,1.85,2.89a12.61,12.61,0,0,0,5,1h1.11a11.56,11.56,0,0,0,7.76-2.66,3.38,3.38,0,0,0,1-2.22q0-3.3-6.66-5.62a6.54,6.54,0,0,1-3.4-3.25,5.54,5.54,0,0,1-.44-1.92v-.3q0-3.6,6-5.84l1.33-.22c1.77.22,2.66.81,2.66,1.77l.07.45c0,.71-.49,1.15-1.47,1.33l-1.85-.23c-.87,0-1.93.69-3.18,2.08a2.48,2.48,0,0,0-.37,1.18q0,1.68,3.55,2.73,5.57,2.38,7.39,6.88l.15,1v1c0,1.71-1.41,3.37-4.22,5a21.11,21.11,0,0,1-9.61,2.22q-7.82-.21-9.46-4.73a6.61,6.61,0,0,1-.3-2.07c0-1.56,1.36-4,4.07-7.25a11.43,11.43,0,0,0,2.14-6.28v-.89c0-1.58-.51-2.54-1.55-2.89h-.44a5,5,0,0,0-3.48,1.85,6.15,6.15,0,0,0-1.63,3.85v.37a1.73,1.73,0,0,0,.67,1.55h.12q1.63,0,3-3.77a2.46,2.46,0,0,1,1.33-.52c.74,0,1.18.59,1.33,1.78v.44c-.08.81-1,2.22-2.74,4.21a4.54,4.54,0,0,1-2.22,1h-.7c-1.67,0-2.92-1.08-3.77-3.25l-.15-1.41q0-4.14,4.29-7.84A6.57,6.57,0,0,1,1060.07-164.59Z" transform="translate(-862.75 354.59)"/><path class="cls-1" d="M1066.06-175.46h2.52a12.52,12.52,0,0,1,9.24,3.55,5.31,5.31,0,0,1,1.33,3v1c0,1.19-.88,2.55-2.66,4.06a2.47,2.47,0,0,1-1.26.52h-.46c-1-.13-1.48-.6-1.48-1.4a2,2,0,0,1,1.26-1.7,2.74,2.74,0,0,0,1.22-1.93c0-1.19-1.5-2.33-4.51-3.4a11.87,11.87,0,0,0-2.83-.41H1068q-7.08,0-13.17,6.07a18.64,18.64,0,0,0-1.92,2.43,3.45,3.45,0,0,1-1.85.89c-.63,0-1-.39-1-1.18s.61-1.86,1.85-3.33c.34-.74,1.64-2.14,3.92-4.21Q1060.91-175.46,1066.06-175.46Z" transform="translate(-862.75 354.59)"/><path class="cls-1" d="M1096.92-162.63l1.4.17c1.41.26,2,.86,1.94,1.79v.37c-.12.89-.78,1.33-2,1.32l-1.35-.47c-1.39-.16-2.75.63-4.08,2.35l-.33,1q-.2,1.5,2.84,2.88a19.36,19.36,0,0,1,5.68,4.33q2.16,3.09,1.86,5.43l-.21,1.29a5.41,5.41,0,0,1-3.24,4.16,9.42,9.42,0,0,1-3.79.52l-.74-.09a7.28,7.28,0,0,1-4.38-2.59c-1.54,1.9-3.19,2.75-4.93,2.54q-4.83-.54-5.4-5.84l.11-2.83q.65-5.41,5.42-10.37l.53-.1c1.09.45,1.58,1,1.5,1.76v.37a45.44,45.44,0,0,1-2.55,4.38,19.88,19.88,0,0,0-1.68,5.09v.15c-.1,2.33.52,3.58,1.86,3.74q1.63.18,3.28-2.44a10.36,10.36,0,0,0,.55-2.26l.11-1.53c0-.31.59-.5,1.65-.56.92.11,1.4.46,1.42,1.06a9.27,9.27,0,0,0,.83,4.34,4.29,4.29,0,0,0,2.85,1.76h.28c1.33,0,2.08-.23,2.25-.7a4,4,0,0,0,.93-2.12q.38-3.26-5.35-6.36a8.58,8.58,0,0,1-4.6-4.59,3.7,3.7,0,0,1-.48-2.13q.36-3.36,4.86-5.36A7,7,0,0,1,1096.92-162.63Z" transform="translate(-862.75 354.59)"/></svg>