<svg id="Layer_1" data-name="Layer 1" xmlns="http://www.w3.org/2000/svg" viewBox="0 0 240.08 47.95"><defs><style>.cls-1{isolation:isolate;}.cls-2{fill:#23221f;}</style></defs><g class="cls-1"><path class="cls-2" d="M6.88,16H8.36c1.49,0,3.48,1.11,6,3.33l.73-.08h.3q7.7,0,13.53,9.62a18.83,18.83,0,0,1,2.15,8v.3c-.46.79-.95,1.18-1.48,1.18H29.5c-.64,0-1.2-.47-1.7-1.4q0-3.72-3.84-9.32-4-4.87-8.06-4.88H14.72c-.35,0-.52.25-.52.74v.22c0,.63,1,1.17,3,1.63a10.65,10.65,0,0,1,5.62,5.4l.29,1.7v.66q0,3-3.4,4.36a5.6,5.6,0,0,1-1.55.23H18A8.21,8.21,0,0,1,13.38,36h-.07a6.14,6.14,0,0,1-5,2.51q-3.67,0-4.95-4.29L3.18,33v-.51q0-4,4.44-9.1a14.65,14.65,0,0,1,3.25-2.73,4.44,4.44,0,0,0-3-1.19H7.84c-2.06,0-3.74,1.51-5,4.51a1.71,1.71,0,0,1-1.11.52H1.48a1.77,1.77,0,0,1-1.48-2A11.41,11.41,0,0,1,3.11,17.5,6.82,6.82,0,0,1,6.88,16ZM6.14,32c0,1.93.71,3.06,2.14,3.4h.59q2.22,0,2.22-5.91c0-.64.45-1,1.33-1.18h.3c1.13,0,1.7.51,1.7,1.55a8.56,8.56,0,0,0,1.55,4,3.16,3.16,0,0,0,1.85.74l.44.08c1,0,1.48-.55,1.48-1.63a6.11,6.11,0,0,0-2.36-4.66,22.72,22.72,0,0,0-4.29-1.48,4,4,0,0,1-1.63-1.77c-.08-.64-.16-1-.22-1-2.08,1-3.69,3-4.81,5.92Z" transform="translate(0 0.01)"/><path class="cls-2" d="M34.53,23h1.93c4.19.26,6.28.92,6.28,2,0,.61-1.23,1.65-3.7,3.1a7.28,7.28,0,0,0-2.73,5.55v.66q0,4.52,5.4,8.29a16,16,0,0,0,3.69,1.25A1.31,1.31,0,0,1,46.07,45v.52c0,.65-.57,1.05-1.7,1.18a13.61,13.61,0,0,1-6.14-2.73Q33,39.59,33,34.16q0-4.51,4.51-8.21l-.22-.08L33.5,25.8l-1.56.07c-.39,0-.66-.41-.81-1.25C31.13,23.53,32.27,23,34.53,23Z" transform="translate(0 0.01)"/><path class="cls-2" d="M44.72,0h2Q52,0,58.62,3.76A21.47,21.47,0,0,1,64.91,9.9v.3c0,.53-.52.92-1.56,1.18h-.22c-.27,0-.94-.62-2-1.85A30.28,30.28,0,0,0,56,6a20.56,20.56,0,0,0-8.21-2.29h-.07c-.64,0-1,.22-1,.67-.09,0-.17.32-.22,1h.08A29.1,29.1,0,0,1,52.63,6.8,20.34,20.34,0,0,1,60,11.38q2.76,2.47,4.14,7.91a10.52,10.52,0,0,1,.3,2.59v.3a20.62,20.62,0,0,1-1.7,8.13q-3.94,8-10.95,8-5,0-7.24-5.33A9.81,9.81,0,0,1,44,29.79v-.14a10.7,10.7,0,0,1,4.66-9.1,7.94,7.94,0,0,1,4.29-1.26,4.8,4.8,0,0,1,4.65,3.18A6.46,6.46,0,0,1,58,24.76q0,4.36-4.22,7.25a8.25,8.25,0,0,1-3.47.74H50c-1,0-1.55-.34-1.55-1,.21-1,.53-1.48,1-1.48,3.3-1.08,5-2.8,5-5.18,0-1.68-.55-2.51-1.63-2.51s-2.47.93-3.92,2.81a10,10,0,0,0-1.63,4.8,6.58,6.58,0,0,0,1.85,4.29,5.62,5.62,0,0,0,2.37.67h.22q4.3,0,7.69-6.44a16.37,16.37,0,0,0,1.63-7q0-8.61-10.87-12.2a25.85,25.85,0,0,0-7.25-1h-.22c-1-.38-1.48-1-1.48-1.7A2.3,2.3,0,0,1,42,5.17h2.07V3.76l-.51-.07h-.67l-.44.07c-.63,0-1-.56-1.11-1.7V2c0-1.13.39-1.7,1.18-1.7A9.74,9.74,0,0,1,44.72,0Z" transform="translate(0 0.01)"/><path class="cls-2" d="M72.34,11.58h1.18a4.44,4.44,0,0,1,4.29,3,8.33,8.33,0,0,1,.37,2.58A19.32,19.32,0,0,1,76.11,25,26.7,26.7,0,0,1,73,29.48a3.33,3.33,0,0,0-.81,1.77c0,.92.62,1.88,1.85,2.89a12.81,12.81,0,0,0,4.95,1H80.1a11.6,11.6,0,0,0,7.77-2.66,3.32,3.32,0,0,0,1-2.22q0-3.3-6.65-5.62a6.55,6.55,0,0,1-3.41-3.25,5.52,5.52,0,0,1-.44-1.92v-.3q0-3.6,6-5.84l1.33-.22c1.78.22,2.66.81,2.66,1.77l.08.45c0,.71-.5,1.15-1.48,1.33l-1.85-.23c-.86,0-1.92.69-3.18,2.08a2.49,2.49,0,0,0-.37,1.18q0,1.68,3.55,2.73,5.57,2.39,7.39,6.88l.15,1v1q0,2.56-4.21,5a21.13,21.13,0,0,1-9.62,2.22q-7.82-.21-9.46-4.73a6.63,6.63,0,0,1-.3-2.07c0-1.56,1.36-4,4.07-7.25a11.39,11.39,0,0,0,2.14-6.28v-.89c0-1.58-.51-2.54-1.55-2.89H73.3a5,5,0,0,0-3.48,1.85,6.14,6.14,0,0,0-1.62,3.85v.37A1.73,1.73,0,0,0,68.86,22H69c1.1,0,2.08-1.26,3-3.77a2.48,2.48,0,0,1,1.33-.52c.74,0,1.18.59,1.33,1.78v.44c-.07.81-1,2.22-2.74,4.21a4.53,4.53,0,0,1-2.22,1H69q-2.49,0-3.77-3.25l-.15-1.41q0-4.14,4.29-7.84A6.58,6.58,0,0,1,72.34,11.58Z" transform="translate(0 0.01)"/><path class="cls-2" d="M100.92,10.47h1a5,5,0,0,1,4.8,2.81,5.11,5.11,0,0,1,.45,2.15v.74q0,3.09-3.33,10.72a19,19,0,0,0-1.18,5.62c.16,1.63.58,2.44,1.25,2.44a2.35,2.35,0,0,0,1.26.22q1.8,0,2.37-2.73c.31-2.76.55-4.14.74-4.14a2,2,0,0,1,1.25-.37h.3c1,0,1.48.46,1.48,1.4a9.43,9.43,0,0,0,1.33,4.29,2.25,2.25,0,0,0,2.14,1.18H115c1.82-.17,2.73-1.06,2.73-2.66v-.66q0-3.8-6.06-6.07-4.44-2.25-4.44-6.06,0-4,6.73-6.29l1.33-.14a3.49,3.49,0,0,1,2.89,1.33l.22,1c0,.85-.59,1.37-1.78,1.55a5.53,5.53,0,0,0-1.62-.37h-.45c-1.07,0-2.25.77-3.55,2.3a1.82,1.82,0,0,0-.29.88v.3c0,1.1,1.21,2.08,3.62,3a19.62,19.62,0,0,1,5.25,3.77q2.3,2.92,2.29,4.95v1.19c0,1.69-1.11,3.21-3.32,4.58a9.86,9.86,0,0,1-3.33.74,8.16,8.16,0,0,1-5.18-2,8.64,8.64,0,0,1-5.47,2.37c-2.42,0-4.12-1.41-5.1-4.21l-.37-2.45c-2.2,2-3.6,3-4.22,3h-.37c-.74,0-1.18-.47-1.33-1.41v-.15A2.47,2.47,0,0,1,94.85,31a26.89,26.89,0,0,0,5-5.1Q104,20,104,16.32a2.66,2.66,0,0,0-2-2.52,2.4,2.4,0,0,0-1-.15q-1.84,0-4,3.18a6.09,6.09,0,0,0-.89,3,1.76,1.76,0,0,0,.67,1.62h.37q1.6,0,3.18-3.84a2.54,2.54,0,0,1,1.4-.52c.74,0,1.21.54,1.41,1.63v.44a3.34,3.34,0,0,1-1,2.22Q99.7,25,97.37,25h-.22c-1.75,0-3.09-1-4-3a5.35,5.35,0,0,1-.37-2q0-4.08,4.29-7.91A6.89,6.89,0,0,1,100.92,10.47Z" transform="translate(0 0.01)"/><path class="cls-2" d="M117.65,1.27h.59c.73,0,1.29.52,1.7,1.55v.37Q118.34,15,118,15a1.7,1.7,0,0,1-1.19.52,1.78,1.78,0,0,1-1.7-1.34q1.11-11.22,1.33-12C116.86,1.56,117.25,1.27,117.65,1.27Z" transform="translate(0 0.01)"/><path class="cls-2" d="M138.2,16h1.48q2.23,0,6,3.33l.74-.08h.3q7.68,0,13.53,9.62a18.8,18.8,0,0,1,2.14,8v.3c-.45.79-.95,1.18-1.48,1.18h-.07c-.64,0-1.21-.47-1.7-1.4q0-3.72-3.84-9.32c-2.67-3.25-5.35-4.88-8.07-4.88H146c-.34,0-.52.25-.52.74v.22c0,.63,1,1.17,3,1.63a10.62,10.62,0,0,1,5.62,5.4l.3,1.7v.66c0,2-1.14,3.45-3.4,4.36a5.61,5.61,0,0,1-1.56.23h-.07a8.21,8.21,0,0,1-4.66-1.7h-.07a6.15,6.15,0,0,1-5,2.51c-2.45,0-4.11-1.43-5-4.29L134.51,33v-.51q0-4,4.43-9.1a14.85,14.85,0,0,1,3.26-2.73,4.44,4.44,0,0,0-3-1.19h-.07c-2.06,0-3.74,1.51-5,4.51a1.75,1.75,0,0,1-1.11.52h-.22a1.77,1.77,0,0,1-1.48-2,11.47,11.47,0,0,1,3.1-4.95A6.88,6.88,0,0,1,138.2,16Zm-.74,16c0,1.93.72,3.06,2.15,3.4h.59q2.22,0,2.22-5.91c0-.64.44-1,1.33-1.18H144c1.14,0,1.71.51,1.71,1.55a8.56,8.56,0,0,0,1.55,4,3.14,3.14,0,0,0,1.85.74l.44.08c1,0,1.48-.55,1.48-1.63a6.09,6.09,0,0,0-2.37-4.66,22.78,22.78,0,0,0-4.28-1.48,3.92,3.92,0,0,1-1.63-1.77c-.09-.64-.16-1-.22-1q-3.13,1.53-4.81,5.92Z" transform="translate(0 0.01)"/><path class="cls-2" d="M159,35.89h.59l.15.15v.15q0,6.2,4.51,8a8.17,8.17,0,0,0,1.7.22A12.35,12.35,0,0,0,170.92,43l.37-.07c.89.18,1.33.58,1.33,1.18v.74q0,1.66-5.47,3l-1.62.15a8.54,8.54,0,0,1-7.62-4.51,12.34,12.34,0,0,1-1.4-6.36C156.51,36.56,157.34,36.17,159,35.89Z" transform="translate(0 0.01)"/><path class="cls-2" d="M169.5,11.58h1.18a4.43,4.43,0,0,1,4.29,3,8.33,8.33,0,0,1,.37,2.58A19.32,19.32,0,0,1,173.27,25a26.5,26.5,0,0,1-3.1,4.44,3.29,3.29,0,0,0-.82,1.77c0,.92.62,1.88,1.85,2.89a12.89,12.89,0,0,0,5,1h1.11A11.57,11.57,0,0,0,185,32.51a3.32,3.32,0,0,0,1-2.22q0-3.3-6.65-5.62a6.52,6.52,0,0,1-3.4-3.25,5.34,5.34,0,0,1-.45-1.92v-.3q0-3.6,6-5.84l1.33-.22q2.67.33,2.67,1.77l.07.45c0,.71-.49,1.15-1.48,1.33l-1.85-.23c-.86,0-1.92.69-3.18,2.08a2.61,2.61,0,0,0-.37,1.18c0,1.12,1.19,2,3.55,2.73q5.57,2.39,7.4,6.88l.15,1v1q0,2.56-4.22,5A21.09,21.09,0,0,1,176,38.5q-7.83-.21-9.47-4.73a7,7,0,0,1-.29-2.07c0-1.56,1.35-4,4.06-7.25a11.4,11.4,0,0,0,2.15-6.28v-.89c0-1.58-.52-2.54-1.55-2.89h-.45A5,5,0,0,0,167,16.24a6.11,6.11,0,0,0-1.63,3.85v.37A1.71,1.71,0,0,0,166,22h.14q1.65,0,3-3.77a2.51,2.51,0,0,1,1.33-.52c.74,0,1.19.59,1.33,1.78v.44c-.07.81-1,2.22-2.73,4.21a4.61,4.61,0,0,1-2.22,1h-.67q-2.49,0-3.77-3.25l-.15-1.41q0-4.14,4.29-7.84A6.62,6.62,0,0,1,169.5,11.58Z" transform="translate(0 0.01)"/><path class="cls-2" d="M185.77,1.27h.59c.73,0,1.29.52,1.7,1.55v.37Q186.46,15,186.14,15a1.69,1.69,0,0,1-1.18.52,1.79,1.79,0,0,1-1.71-1.34q1.11-11.22,1.34-12C185,1.56,185.38,1.27,185.77,1.27Z" transform="translate(0 0.01)"/><path class="cls-2" d="M197.3,11.58h1.19a4.44,4.44,0,0,1,4.29,3,8.64,8.64,0,0,1,.37,2.58A19.32,19.32,0,0,1,201.08,25,26.7,26.7,0,0,1,198,29.48a3.33,3.33,0,0,0-.81,1.77c0,.92.61,1.88,1.85,2.89a12.81,12.81,0,0,0,5,1h1.11a11.55,11.55,0,0,0,7.76-2.66,3.34,3.34,0,0,0,1-2.22q0-3.3-6.66-5.62a6.56,6.56,0,0,1-3.4-3.25,5.52,5.52,0,0,1-.44-1.92v-.3q0-3.6,6-5.84l1.33-.22c1.77.22,2.66.81,2.66,1.77l.07.45c0,.71-.49,1.15-1.47,1.33l-1.85-.23c-.87,0-1.93.69-3.18,2.08a2.49,2.49,0,0,0-.37,1.18q0,1.68,3.55,2.73,5.57,2.39,7.39,6.88l.15,1v1q0,2.56-4.22,5a21.06,21.06,0,0,1-9.61,2.22q-7.81-.21-9.46-4.73a6.63,6.63,0,0,1-.3-2.07c0-1.56,1.36-4,4.07-7.25a11.39,11.39,0,0,0,2.14-6.28v-.89c0-1.58-.51-2.54-1.55-2.89h-.44a5,5,0,0,0-3.48,1.85,6.16,6.16,0,0,0-1.63,3.85v.37a1.74,1.74,0,0,0,.67,1.55H194q1.64,0,3-3.77a2.48,2.48,0,0,1,1.33-.52c.74,0,1.18.59,1.33,1.78v.44c-.08.81-1,2.22-2.74,4.21a4.53,4.53,0,0,1-2.22,1H194c-1.67,0-2.92-1.08-3.77-3.25l-.15-1.41q0-4.14,4.29-7.84A6.59,6.59,0,0,1,197.3,11.58Z" transform="translate(0 0.01)"/><path class="cls-2" d="M203.29.71h2.52a12.52,12.52,0,0,1,9.24,3.55,5.28,5.28,0,0,1,1.33,3v1c0,1.19-.88,2.55-2.66,4.06a2.48,2.48,0,0,1-1.26.52H212c-1-.13-1.48-.6-1.48-1.4a2,2,0,0,1,1.26-1.7A2.74,2.74,0,0,0,213,7.81c0-1.19-1.5-2.33-4.51-3.4A11.74,11.74,0,0,0,205.66,4h-.44q-7.08,0-13.17,6.07a19.06,19.06,0,0,0-1.92,2.43,3.5,3.5,0,0,1-1.85.89c-.63,0-1-.39-1-1.18s.61-1.86,1.85-3.33q.51-1.11,3.92-4.21Q198.14.71,203.29.71Z" transform="translate(0 0.01)"/><path class="cls-2" d="M234.15,13.54l1.4.17c1.41.26,2,.86,1.94,1.79l0,.37q-.17,1.34-2,1.32l-1.35-.47c-1.39-.16-2.75.63-4.08,2.35l-.33,1q-.19,1.5,2.84,2.88a19.19,19.19,0,0,1,5.68,4.33q2.16,3.09,1.86,5.43L239.9,34a5.41,5.41,0,0,1-3.24,4.16,9.38,9.38,0,0,1-3.79.52l-.74-.09A7.3,7.3,0,0,1,227.75,36q-2.31,2.85-4.93,2.54Q218,38,217.42,32.7l.11-2.83q.65-5.41,5.42-10.37l.53-.1c1.09.45,1.58,1,1.5,1.76l0,.37a46.58,46.58,0,0,1-2.55,4.38A20.15,20.15,0,0,0,220.75,31l0,.15c-.1,2.33.52,3.58,1.86,3.74q1.64.18,3.28-2.44a9.86,9.86,0,0,0,.55-2.26l.11-1.53c0-.31.59-.5,1.65-.56.92.11,1.4.46,1.42,1.06a9.31,9.31,0,0,0,.83,4.34,4.31,4.31,0,0,0,2.85,1.76l.28,0c1.33,0,2.08-.23,2.25-.7a3.9,3.9,0,0,0,.93-2.12q.38-3.26-5.35-6.36a8.58,8.58,0,0,1-4.6-4.59,3.79,3.79,0,0,1-.48-2.13Q226.7,16,231.19,14A6.91,6.91,0,0,1,234.15,13.54Z" transform="translate(0 0.01)"/></g></svg>