<svg id="Layer_1" data-name="Layer 1" xmlns="http://www.w3.org/2000/svg" viewBox="0 0 94.59 153.65"><defs><style>.cls-1,.cls-2{fill:#fff;}.cls-2{opacity:0.35;}</style></defs><path class="cls-1" d="M1007.15-354.59c.44.15.87.31,1.31.44a11.25,11.25,0,0,1,8.11,10.38c0,1.79-.78,2.67-2.62,2.68-3.59,0-7.18,0-10.81,0v4.49c.78,0,1.56,0,2.34,0a6.81,6.81,0,0,1,6.4,5,6.63,6.63,0,0,1-3.06,7.49,2,2,0,0,0-1.23,2.21c.08,1.09,0,2.18,0,3.32,1.34.26,2.57.44,3.76.74,10.93,2.81,18.27,12,18.72,23.55.06,1.5.05,3,0,4.5,0,1.74-.91,2.75-2.31,2.71s-2.13-1-2.2-2.68a63.53,63.53,0,0,0-.47-8.06,20.09,20.09,0,0,0-19-16.24c-2.46-.08-3.07-.7-3.08-3.17s0-5.1,0-7.65c0-1.8.57-2.4,2.32-2.71a2.22,2.22,0,0,0,2.13-2.41,2.21,2.21,0,0,0-2.47-2.07q-22.27,0-44.56,0a2.2,2.2,0,0,0-2.41,2.13c-.06,1.27.72,2.1,2.19,2.35,1.64.28,2.25.93,2.27,2.62q.06,4.13,0,8.25c0,1.84-.82,2.58-2.68,2.65a20.18,20.18,0,0,0-19.77,19.42c-.1,1.75,0,3.5,0,5.25v57.75a9.64,9.64,0,0,1-.12,1.94,2,2,0,0,1-2.12,1.74,2,2,0,0,1-2.16-1.71,6.71,6.71,0,0,1-.11-1.49q0-31.05,0-62.1c0-12.5,8-22.32,20.08-24.86.77-.17,1.55-.27,2.42-.41,0-1.5.05-2.89,0-4.28a1.53,1.53,0,0,0-.71-.95c-3-1.85-4.35-4.77-3.52-7.85s3.5-4.95,7-5h1.7v-4.49H952.15c-2.48,0-3.27-.82-3-3.3.51-4.72,3.11-7.85,7.49-9.59.43-.17.85-.41,1.27-.61Zm-53,8.93h57.46a6.5,6.5,0,0,0-6.63-4.42q-14.54,0-29.08,0c-5.15,0-10.29,0-15.44,0A6.44,6.44,0,0,0,954.11-345.66ZM998.56-341H967.17v4.35h31.39Z" transform="translate(-935.53 354.59)"/><path class="cls-1" d="M1021.12-255.86c0,12.65-.11,25.31,0,38,.07,5.33-3.47,8.05-8,8-20.31-.14-40.62-.06-60.93-.06-4.93,0-7.63-2.67-7.63-7.57q0-37.74,0-75.47c0-9.94,6.74-16.6,16.69-16.6q21.91,0,43.82,0a15.64,15.64,0,0,1,15.72,12.77,20.86,20.86,0,0,1,.31,4.18Q1021.13-274.24,1021.12-255.86Zm-4.53-.13q0-18.45,0-36.9c0-7.51-4.67-12.18-12.13-12.18H961.25c-7.48,0-12.16,4.65-12.17,12.14v75.15c0,2.72.62,3.33,3.35,3.33h60.76c2.82,0,3.4-.59,3.4-3.44Z" transform="translate(-935.53 354.59)"/><path class="cls-1" d="M982.68-200.94H952.07c-9.68,0-16.41-6.67-16.52-16.34,0-1.25,0-2.5,0-3.75a2.24,2.24,0,0,1,2.29-2.42,2.24,2.24,0,0,1,2.19,2.38c.07,1.6,0,3.2.07,4.8a11.18,11.18,0,0,0,11.35,10.82c3.25,0,6.5,0,9.75,0h52.23c7.47,0,12.14-4.67,12.14-12.17q0-30.62,0-61.22a15.09,15.09,0,0,1,0-1.65,2.12,2.12,0,0,1,2.16-2.06,2.17,2.17,0,0,1,2.28,2.11,9.56,9.56,0,0,1,0,1.2q0,30.83,0,61.67c0,9.95-6.72,16.63-16.66,16.63Z" transform="translate(-935.53 354.59)"/><path class="cls-2" d="M1016.59-245.67V-217c0,2.15-.58,2.59-3.4,2.59H952.43c-2.73,0-3.35-.46-3.35-2.51v-56.48c0-5.62,4.69-9.12,12.17-9.12h43.21c7.46,0,12.12,3.51,12.13,9.16Q1016.61-259.54,1016.59-245.67Z" transform="translate(-935.53 354.59)"/></svg>